<svg id="Capa_1" enable-background="new 0 0 512 512" height="512" viewBox="0 0 512 512" width="512" xmlns="http://www.w3.org/2000/svg"><g><g><path d="m477.612 15.65h-405.879l-15.067 12.428v169.827h435.967l11.866-6.098v-149.269c.001-14.85-12.038-26.888-26.887-26.888z" fill="#dbedff"/><path d="m61 42.538c0-14.85 12.038-26.888 26.888-26.888h-53.5c-14.85 0-26.888 12.038-26.888 26.888v149.268l11.134 6.098h53.5l-11.134-6.098z" fill="#b5dcff"/><path d="m451.119 45.806h-66c-9.35 0-17 7.65-17 17 0 9.35 7.65 17 17 17h66c9.35 0 17-7.65 17-17 0-9.35-7.65-17-17-17z" fill="#60b9fe"/><path d="m421.619 62.806c0-9.35 7.65-17 17-17h-53.5c-9.35 0-17 7.65-17 17 0 9.35 7.65 17 17 17h53.5c-9.35 0-17-7.65-17-17z" fill="#1ca8ff"/><path d="m384.728 155.643h-215.866l-12.529 9.678v23.5l7.03 9.083h236.937l5.2-6.098v-15.391c0-11.472-9.3-20.772-20.772-20.772z" fill="#b5dcff"/><path d="m160 176.415c0-11.472 9.3-20.772 20.772-20.772h-53.5c-11.472 0-20.772 9.3-20.772 20.772v15.391l6.567 6.098h53.5l-6.567-6.098z" fill="#8bcaff"/><path d="m56.666 191.806v79.872l6.815 16.942 9.152-4.049h374.5l8.2 7.065h22.278c14.85 0 26.888-12.038 26.888-26.888v-72.942z" fill="#aea7d7"/><g><path d="m61 264.748v-72.942h-53.5v72.942c0 14.85 12.038 26.888 26.888 26.888h22.278l14.037-6.211c-5.928-4.932-9.703-12.363-9.703-20.677z" fill="#8479c2"/></g><path d="m443.333 251.721h-309.206l-7.16 6.183v29.667l2.533 4.065h325.834v-27.915c-.001-6.6-5.401-12-12.001-12z" fill="#8479c2"/><path d="m141.5 251.721h-72.834c-6.6 0-12 5.4-12 12v27.915h72.834v-27.915c0-6.6 5.4-12 12-12z" fill="#6e60b8"/></g><g><path d="m385.119 38.306c-13.51 0-24.5 10.991-24.5 24.5s10.99 24.5 24.5 24.5h66c13.51 0 24.5-10.991 24.5-24.5s-10.99-24.5-24.5-24.5zm75.5 24.5c0 5.238-4.262 9.5-9.5 9.5h-66c-5.238 0-9.5-4.262-9.5-9.5s4.262-9.5 9.5-9.5h66c5.238 0 9.5 4.262 9.5 9.5z"/><path d="m244 229.64h24c4.143 0 7.5-3.358 7.5-7.5s-3.357-7.5-7.5-7.5h-24c-4.143 0-7.5 3.358-7.5 7.5s3.357 7.5 7.5 7.5z"/><path d="m234.918 367.738c-2.07-3.587-6.66-4.817-10.245-2.745l-15.232 8.794v-6.819c0-4.142-3.357-7.5-7.5-7.5s-7.5 3.358-7.5 7.5v15.479l-9.508 5.49-21.098-12.181v-10.979l13.405-7.74c3.587-2.071 4.816-6.658 2.745-10.245s-6.66-4.817-10.245-2.745l-5.905 3.409v-17.589c0-4.142-3.357-7.5-7.5-7.5s-7.5 3.358-7.5 7.5v17.589l-5.906-3.41c-3.589-2.073-8.175-.842-10.245 2.745-2.071 3.587-.842 8.174 2.745 10.245l13.406 7.74v10.979l-21.099 12.181-9.508-5.49v-15.479c0-4.142-3.357-7.5-7.5-7.5s-7.5 3.358-7.5 7.5v6.819l-15.232-8.794c-3.59-2.072-8.175-.842-10.245 2.745-2.071 3.587-.842 8.174 2.745 10.245l15.232 8.794-5.905 3.41c-3.587 2.071-4.816 6.658-2.745 10.245 2.074 3.592 6.663 4.814 10.245 2.745l13.405-7.74 9.508 5.489v24.364l-9.508 5.489-13.405-7.74c-3.587-2.073-8.175-.843-10.245 2.745-2.071 3.587-.842 8.174 2.745 10.245l5.905 3.41-15.232 8.794c-3.587 2.071-4.816 6.658-2.745 10.245 2.072 3.59 6.662 4.816 10.245 2.745l15.232-8.794v6.819c0 4.142 3.357 7.5 7.5 7.5s7.5-3.358 7.5-7.5v-15.477l9.508-5.489 21.1 12.181v10.979l-13.406 7.74c-3.587 2.071-4.816 6.658-2.745 10.245 2.07 3.588 6.66 4.816 10.245 2.745l5.906-3.41v17.589c0 4.142 3.357 7.5 7.5 7.5s7.5-3.358 7.5-7.5v-17.589l5.905 3.409c3.591 2.073 8.177.839 10.245-2.745 2.071-3.587.842-8.174-2.745-10.245l-13.405-7.74v-10.979l21.099-12.181 9.508 5.489v15.479c0 4.142 3.357 7.5 7.5 7.5s7.5-3.358 7.5-7.5v-6.819l15.232 8.794c3.592 2.073 8.177.838 10.245-2.745 2.071-3.587.842-8.174-2.745-10.245l-15.232-8.794 5.905-3.41c3.587-2.071 4.816-6.658 2.745-10.245-2.072-3.588-6.66-4.817-10.245-2.745l-13.405 7.74-9.508-5.489v-24.364l9.508-5.489 13.405 7.74c3.583 2.07 8.173.845 10.245-2.745 2.071-3.587.842-8.174-2.745-10.245l-5.905-3.41 15.232-8.794c3.585-2.071 4.814-6.658 2.743-10.245zm-57.485 57.553-21.099 12.181-21.1-12.181v-24.363l21.1-12.182 21.099 12.182z"/><path d="m434.252 367.738c-2.07-3.587-6.66-4.817-10.245-2.745l-15.232 8.794v-6.819c0-4.142-3.357-7.5-7.5-7.5s-7.5 3.358-7.5 7.5v15.479l-9.509 5.49-21.099-12.181v-10.979l13.405-7.74c3.587-2.071 4.816-6.658 2.745-10.245s-6.66-4.817-10.245-2.745l-5.905 3.409v-17.589c0-4.142-3.357-7.5-7.5-7.5s-7.5 3.358-7.5 7.5v17.589l-5.905-3.409c-3.589-2.073-8.175-.843-10.245 2.745-2.071 3.587-.842 8.174 2.745 10.245l13.405 7.74v10.979l-21.098 12.181-9.508-5.49v-15.479c0-4.142-3.357-7.5-7.5-7.5s-7.5 3.358-7.5 7.5v6.819l-15.232-8.794c-3.59-2.072-8.176-.842-10.245 2.745-2.071 3.587-.842 8.174 2.745 10.245l15.232 8.794-5.906 3.41c-3.587 2.071-4.816 6.658-2.745 10.245 2.072 3.59 6.661 4.816 10.245 2.745l13.406-7.74 9.508 5.489v24.364l-9.508 5.489-13.406-7.74c-3.589-2.073-8.176-.842-10.245 2.745-2.071 3.587-.842 8.174 2.745 10.245l5.906 3.41-15.232 8.794c-3.587 2.071-4.816 6.658-2.745 10.245 2.072 3.59 6.661 4.816 10.245 2.745l15.232-8.794v6.819c0 4.142 3.357 7.5 7.5 7.5s7.5-3.358 7.5-7.5v-15.478l9.508-5.489 21.099 12.181v10.979l-13.405 7.74c-3.587 2.071-4.816 6.658-2.745 10.245 2.071 3.588 6.66 4.816 10.245 2.745l5.905-3.409v17.589c0 4.142 3.357 7.5 7.5 7.5s7.5-3.358 7.5-7.5v-17.589l5.905 3.409c3.591 2.073 8.177.839 10.245-2.745 2.071-3.587.842-8.174-2.745-10.245l-13.405-7.74v-10.979l21.099-12.181 9.508 5.489v15.479c0 4.142 3.357 7.5 7.5 7.5s7.5-3.358 7.5-7.5v-6.819l15.232 8.794c3.592 2.073 8.177.838 10.245-2.745 2.071-3.587.842-8.174-2.745-10.245l-15.233-8.794 5.906-3.41c3.587-2.071 4.816-6.658 2.745-10.245-2.072-3.588-6.66-4.817-10.245-2.745l-13.406 7.74-9.507-5.489v-24.365l9.507-5.489 13.406 7.74c3.583 2.07 8.173.845 10.245-2.745 2.071-3.587.842-8.174-2.745-10.245l-5.906-3.41 15.233-8.794c3.587-2.071 4.816-6.658 2.745-10.245zm-57.485 57.553-21.1 12.181-21.099-12.181v-24.363l21.099-12.182 21.1 12.182z"/><path d="m477.612 8.149h-443.223c-18.962 0-34.389 15.427-34.389 34.389v222.209c0 18.962 15.427 34.388 34.389 34.388h420.945 22.278c18.962 0 34.388-15.426 34.388-34.388 0-6.77 0-125.271 0-131.847 0-4.142-3.357-7.5-7.5-7.5s-7.5 3.358-7.5 7.5v51.406h-84v-7.891c0-15.589-12.683-28.272-28.271-28.272h-111.229c-4.143 0-7.5 3.358-7.5 7.5s3.357 7.5 7.5 7.5h111.229c7.318 0 13.271 5.954 13.271 13.272v7.891h-284v-7.891c0-7.318 5.954-13.272 13.272-13.272h111.228c4.143 0 7.5-3.358 7.5-7.5s-3.357-7.5-7.5-7.5h-111.228c-15.59 0-28.272 12.683-28.272 28.272v7.891h-84v-141.768c0-10.691 8.697-19.389 19.389-19.389h443.224c10.69 0 19.388 8.698 19.388 19.389v55.362c0 4.142 3.357 7.5 7.5 7.5s7.5-3.358 7.5-7.5v-55.362c-.001-18.962-15.427-34.389-34.389-34.389zm-79.611 251.072v24.915h-34.834v-24.915zm-49.834 24.915h-34.833v-24.915h34.833zm-49.833 0h-34.834v-24.915h34.834zm-49.834 0h-34.833v-24.915h34.833zm-49.833 0h-34.833v-24.915h34.833zm-49.833 0h-34.834v-24.915h34.834zm-49.834 0h-34.833v-20.415c0-2.439 2.061-4.5 4.5-4.5h30.333zm314.001 0v-24.915h30.333c2.439 0 4.5 2.061 4.5 4.5v20.415zm83.999-84.83v65.441c0 10.688-8.695 19.388-19.388 19.388h-14.778v-20.415c0-10.752-8.748-19.5-19.5-19.5h-374.667c-10.752 0-19.5 8.748-19.5 19.5v20.415h-14.778c-10.692 0-19.389-8.698-19.389-19.388v-65.441z"/></g></g></svg>