<svg id="Capa_1" enable-background="new 0 0 512 512" height="512" viewBox="0 0 512 512" width="512" xmlns="http://www.w3.org/2000/svg"><g><path d="m0 40.5v232.667h512v-232.667zm482 202.667h-40.333v-60h-371.334v60h-40.333v-172.667h452zm-381.667 0v-30h311.333v30z"/><path d="m283.667 123.166h30v30h-30z"/><path d="m347.667 123.166h30v30h-30z"/><path d="m411.667 123.166h30v30h-30z"/><path d="m241 311.5h30v160h-30z"/><path d="m177 356.874c0 35.285-28.706 63.991-63.991 63.991-21.419 0-38.844-17.426-38.844-38.845 0-11.967 9.736-21.703 21.704-21.703 5.524 0 10.019 4.495 10.019 10.019h30c0-22.067-17.953-40.019-40.019-40.019-28.509 0-51.704 23.194-51.704 51.703 0 37.961 30.883 68.845 68.844 68.845 51.827 0 93.991-42.164 93.991-93.991v-45.374h-30z"/><path d="m416.131 330.317c-22.067 0-40.02 17.952-40.02 40.019h30c0-5.524 4.495-10.019 10.02-10.019 11.967 0 21.703 9.736 21.703 21.703 0 21.419-17.425 38.845-38.844 38.845-35.284 0-63.99-28.706-63.99-63.991v-45.374h-30v45.374c0 51.827 42.164 93.991 93.99 93.991 37.961 0 68.844-30.884 68.844-68.845.001-28.509-23.193-51.703-51.703-51.703z"/></g></svg>