<svg id="Capa_1" enable-background="new 0 0 512 512" height="512" viewBox="0 0 512 512" width="512" xmlns="http://www.w3.org/2000/svg" xmlns:xlink="http://www.w3.org/1999/xlink"><linearGradient id="SVGID_1_" gradientUnits="userSpaceOnUse" x1="256" x2="256" y1="512" y2="0"><stop offset="0" stop-color="#5558ff"/><stop offset="1" stop-color="#00c0ff"/></linearGradient><g><g><path d="m76 61c-8.284 0-15 6.716-15 15s6.716 15 15 15 15-6.716 15-15-6.716-15-15-15zm391-61h-422c-24.813 0-45 20.187-45 45v181c0 24.813 20.187 45 45 45h106v2.574c0 23.649-9.333 46.546-25.606 62.82-5.858 5.858-5.858 15.355 0 21.213 5.857 5.858 15.355 5.858 21.213 0 21.857-21.858 34.393-52.487 34.393-84.033v-2.574h60v76c0 8.284 6.716 15 15 15s15-6.716 15-15v-76h60v2.574c0 31.547 12.536 62.176 34.394 84.033 5.857 5.858 15.355 5.858 21.213 0s5.858-15.355 0-21.213c-16.274-16.274-25.607-39.171-25.607-62.82v-2.574h106c24.813 0 45-20.187 45-45v-181c0-24.813-20.187-45-45-45zm-106 241h-210v-30h210zm121-15c0 8.271-6.729 15-15 15h-76v-45c0-8.284-6.716-15-15-15h-240c-8.284 0-15 6.716-15 15v45h-76c-8.271 0-15-6.729-15-15v-75h452zm0-105h-452v-76c0-8.271 6.729-15 15-15h422c8.271 0 15 6.729 15 15zm-174.039 301c-4.143-7.175-13.315-9.632-20.49-5.49l-16.471 9.509v-19.019c0-8.284-6.716-15-15-15s-15 6.716-15 15v19.019l-16.471-9.51c-7.175-4.143-16.349-1.684-20.49 5.49-4.142 7.174-1.684 16.348 5.49 20.49l16.471 9.511-16.471 9.51c-7.174 4.142-9.632 13.316-5.49 20.49 4.163 7.21 13.35 9.613 20.49 5.49l16.471-9.51v19.02c0 8.284 6.716 15 15 15s15-6.716 15-15v-19.019l16.471 9.509c7.149 4.128 16.333 1.709 20.49-5.49 4.143-7.174 1.685-16.348-5.49-20.49l-16.472-9.51 16.471-9.51c7.176-4.142 9.634-13.316 5.491-20.49zm-180-30c-4.142-7.174-13.315-9.632-20.49-5.49l-16.471 9.509v-19.019c0-8.284-6.716-15-15-15s-15 6.716-15 15v19.019l-16.471-9.51c-7.175-4.142-16.349-1.684-20.49 5.49-4.142 7.174-1.684 16.348 5.49 20.49l16.471 9.511-16.471 9.51c-7.174 4.142-9.632 13.316-5.49 20.49 4.163 7.21 13.35 9.613 20.49 5.49l16.471-9.509v19.019c0 8.284 6.716 15 15 15s15-6.716 15-15v-19.019l16.471 9.51c7.15 4.128 16.335 1.708 20.49-5.49 4.142-7.174 1.684-16.348-5.49-20.49l-16.471-9.511 16.471-9.51c7.175-4.142 9.633-13.316 5.49-20.49zm360 0c-4.142-7.175-13.316-9.632-20.49-5.49l-16.471 9.509v-19.019c0-8.284-6.716-15-15-15s-15 6.716-15 15v19.019l-16.471-9.509c-7.175-4.143-16.349-1.684-20.49 5.49-4.143 7.174-1.685 16.348 5.49 20.49l16.471 9.51-16.471 9.51c-7.175 4.142-9.633 13.316-5.49 20.49 4.155 7.197 13.336 9.62 20.49 5.49l16.471-9.509v19.019c0 8.284 6.716 15 15 15s15-6.716 15-15v-19.019l16.471 9.509c7.149 4.128 16.333 1.709 20.49-5.49 4.143-7.174 1.685-16.348-5.49-20.49l-16.471-9.51 16.471-9.51c7.175-4.142 9.633-13.316 5.49-20.49z" fill="url(#SVGID_1_)"/></g></g></svg>