<svg id="Outline" height="512" viewBox="0 0 512 512" width="512" xmlns="http://www.w3.org/2000/svg"><path d="m448 200h-176a48.054 48.054 0 0 0 -48 48v176a48.054 48.054 0 0 0 48 48h32v24h16v-56a8 8 0 0 0 -2.878-6.146l-28.432-23.692a46.264 46.264 0 0 1 -16.69-35.635v-30.912a11.983 11.983 0 0 1 9.09-11.641l6.91-1.728v37.754h16v-68a12 12 0 0 1 24 0v28h16v-44a12 12 0 0 1 24 0v44h16v-44a12 12 0 0 1 24 0v52h16v-36a12 12 0 0 1 24 0v19.5a235.256 235.256 0 0 1 -30.946 116.529 7.992 7.992 0 0 0 -1.054 3.971v56h16v-24h16a48.054 48.054 0 0 0 48-48v-176a48.054 48.054 0 0 0 -48-48zm32 224a32.036 32.036 0 0 1 -32 32h-16v-13.894a251.285 251.285 0 0 0 32-122.6v-19.506a27.992 27.992 0 0 0 -41.358-24.6 27.974 27.974 0 0 0 -46.642-10.969 27.974 27.974 0 0 0 -46.642 10.969 27.992 27.992 0 0 0 -41.358 24.6v13.754l-10.791 2.7a27.958 27.958 0 0 0 -21.209 27.161v30.912a62.22 62.22 0 0 0 22.447 47.926l25.553 21.294v12.253h-32a32.036 32.036 0 0 1 -32-32v-176a32.036 32.036 0 0 1 32-32h176a32.036 32.036 0 0 1 32 32z"/><path d="m488 16h-464a8 8 0 0 0 -8 8v32a8 8 0 0 0 8 8h16v376a8 8 0 0 0 8 8h160v-16h-152v-368h400v120h16v-120h16a8 8 0 0 0 8-8v-32a8 8 0 0 0 -8-8zm-8 32h-448v-16h448z"/><path d="m88 96h144v88h16v-96a8 8 0 0 0 -8-8h-160a8 8 0 0 0 -8 8v144a8 8 0 0 0 8 8h128v-16h-120z"/><path d="m440 184v-96a8 8 0 0 0 -8-8h-160a8 8 0 0 0 -8 8v96h16v-88h144v88z"/><path d="m72 264v144a8 8 0 0 0 8 8h128v-16h-120v-128h120v-16h-128a8 8 0 0 0 -8 8z"/><path d="m128 152h63.999v16h-63.999z" transform="matrix(.707 -.707 .707 .707 -66.274 159.99)"/><path d="m166.627 174.627h32v16h-32z" transform="matrix(.707 -.707 .707 .707 -75.647 182.616)"/><path d="m121.373 129.372h32v16h-32z" transform="matrix(.707 -.707 .707 .707 -56.902 137.375)"/><path d="m128 328h63.999v16h-63.999z" transform="matrix(.707 -.707 .707 .707 -190.72 211.534)"/><path d="m166.627 350.627h32v16h-32z" transform="matrix(.707 -.707 .707 .707 -200.092 234.16)"/><path d="m121.373 305.372h32v16h-32z" transform="matrix(.707 -.707 .707 .707 -181.354 188.925)"/><path d="m320 152h63.999v16h-63.999z" transform="matrix(.707 -.707 .707 .707 -10.045 295.749)"/><path d="m313.373 129.372h32v16h-32z" transform="matrix(.707 -.707 .707 .707 -.665 273.141)"/></svg>