<svg id="Capa_1" enable-background="new 0 0 512 512" height="512" viewBox="0 0 512 512" width="512" xmlns="http://www.w3.org/2000/svg"><g><g><path d="m148.951 109.673c18.027 8.083 25.279 27.193 27.56 35.034 1.107 3.805 4.513 6.362 8.474 6.362s7.366-2.557 8.474-6.363c2.281-7.841 9.532-26.951 27.561-35.034 3.176-1.424 5.229-4.589 5.229-8.062s-2.052-6.638-5.229-8.063c-18.028-8.083-25.279-27.193-27.561-35.034-1.107-3.805-4.513-6.362-8.474-6.362s-7.367 2.557-8.474 6.362c-2.281 7.841-9.532 26.951-27.559 35.034-3.177 1.424-5.23 4.589-5.23 8.063s2.053 6.639 5.229 8.063zm36.034-32.191c4.161 8.094 10.565 17.229 20.176 24.128-9.611 6.899-16.014 16.034-20.176 24.128-4.161-8.094-10.564-17.229-20.176-24.128 9.611-6.899 16.015-16.034 20.176-24.128z"/><path d="m135.291 152.114c3.364-1.508 5.537-4.857 5.537-8.532s-2.174-7.025-5.537-8.532c-26.009-11.661-36.409-39.018-39.673-50.24-1.171-4.027-4.774-6.732-8.965-6.732s-7.794 2.706-8.965 6.732c-3.264 11.221-13.664 38.578-39.673 50.24-3.364 1.508-5.537 4.857-5.537 8.532s2.174 7.025 5.537 8.532c26.009 11.662 36.409 39.019 39.674 50.24 1.171 4.026 4.774 6.731 8.965 6.731 4.19 0 7.793-2.705 8.965-6.732 3.263-11.22 13.664-38.577 39.672-50.239zm-48.638 31.412c-5.795-12.887-15.952-29.083-32.993-39.945 17.041-10.861 27.199-27.057 32.994-39.944 5.795 12.887 15.953 29.083 32.993 39.944-17.041 10.862-27.199 27.058-32.994 39.945z"/><path d="m479.481 494.611-1.567-21.949c-.005-.071-.011-.141-.018-.212-3.504-35.045-10.061-70.481-10.363-72.105-4.719-33.102-25.27-48.285-41.707-55.191-3.637-1.528-7.222-2.719-10.625-3.648v-200.987c0-4.135-3.352-7.488-7.488-7.488-4.135 0-7.488 3.352-7.488 7.488v198.183c-4.511-.474-7.627-.466-8.494-.451-.865-.013-3.982-.021-8.495.453v-255.438h16.989v21.878c0 4.135 3.352 7.488 7.488 7.488 4.135 0 7.488-3.352 7.488-7.488v-81.673c-.001-12.942-10.529-23.471-23.471-23.471s-23.471 10.529-23.471 23.471v318.037c-3.404.928-6.989 2.119-10.625 3.647-3.873 1.627-7.973 3.722-12.041 6.396l2.677-50.156c6.438-1.731 11.198-7.602 11.198-14.579v-20.652c0-8.333-6.779-15.112-15.112-15.112h-2.739c1.229-3.229 1.886-6.696 1.886-10.258 0-15.896-12.932-28.827-28.827-28.827-3.531 0-6.956.625-10.168 1.838-6.56-9.454-17.51-15.404-29.305-15.404-3.876 0-7.714.641-11.353 1.867-4.859-20.309-23.165-35.451-44.942-35.451s-40.084 15.141-44.943 35.451c-3.639-1.226-7.477-1.867-11.353-1.867-19.635 0-35.61 15.974-35.61 35.609 0 6.031 1.504 11.874 4.205 17.042h-5.058c-8.333 0-15.112 6.779-15.112 15.111v20.653c0 6.977 4.759 12.848 11.197 14.579l3.402 63.744-22.128 22.128c-4.08 4.08-6.328 9.505-6.328 15.276s2.247 11.196 6.328 15.276c4.212 4.211 9.744 6.317 15.276 6.317 3.394 0 6.785-.801 9.874-2.386l2.897 54.285c1.077 20.167 17.74 35.965 37.935 35.965h131.527c4.074 0 8-.653 11.688-1.845 2.29 1.187 4.846 1.845 7.466 1.845h143.12c4.49 0 8.82-1.885 11.88-5.17 3.058-3.286 4.63-7.74 4.31-12.219zm-96.246-471.14c0-4.684 3.811-8.495 8.495-8.495s8.494 3.811 8.494 8.495v44.82h-16.989zm8.287 329.754c.132.004.28.003.411 0 2.061-.046 47.77-.667 59.08 40.933h-107.693l1.186-22.229c17.688-19.089 45.377-18.744 47.016-18.704zm-228.909-139.848c4.748 0 9.213 1.572 12.912 4.546 2.276 1.83 5.406 2.169 8.02.873 2.615-1.297 4.238-3.996 4.157-6.914l-.011-.366c-.006-.164-.013-.327-.013-.492 0-17.22 14.01-31.23 31.231-31.23s31.23 14.01 31.23 31.23c0 .165-.007.329-.013.492l-.011.366c-.08 2.918 1.542 5.616 4.157 6.914 2.615 1.297 5.746.957 8.02-.873 3.699-2.974 8.163-4.546 12.912-4.546 8.512 0 16.265 5.347 19.29 13.306.847 2.227 2.703 3.918 4.999 4.555s4.757.142 6.631-1.332c2.462-1.938 5.42-2.962 8.553-2.962 7.637 0 13.851 6.214 13.851 13.852 0 3.942-1.668 7.649-4.542 10.258h-173.706c-5.095-3.886-8.301-10.371-8.301-17.042-.001-11.379 9.256-20.635 20.634-20.635zm-36.599 52.786c0-.075.061-.136.136-.136h218.207c.075 0 .136.061.136.136v20.652c0 .075-.061.136-.136.136h-62.357c-9.939 0-18.739 5.914-22.419 15.066-4.015 9.989-13.564 16.442-24.328 16.442-.593 0-1.179-.031-1.763-.071l14.028-14.028c4.08-4.08 6.328-9.505 6.328-15.276s-2.247-11.196-6.328-15.276c-8.423-8.423-22.128-8.423-30.551 0l-16.355 16.355c-3.59-2.061-7.734-3.213-12.105-3.213h-62.357c-.075 0-.136-.061-.136-.136zm62.812 35.787-48.952 48.952-2.614-48.975h51.246c.11 0 .213.02.32.023zm112.191 195.074h-131.527c-12.234 0-22.328-9.57-22.98-21.786l-3.54-66.328 32.23-32.23c2.924-2.924 2.924-7.665 0-10.589s-7.665-2.924-10.589 0l-41.139 41.139c-2.584 2.584-6.789 2.583-9.373 0-2.584-2.584-2.584-6.789 0-9.373l113.457-113.457c2.584-2.585 6.788-2.585 9.373 0 2.584 2.584 2.584 6.789 0 9.373l-47.021 47.021c-2.924 2.924-2.924 7.665 0 10.589s7.665 2.924 10.589 0l20.481-20.481c4.478 1.644 9.291 2.534 14.275 2.534 16.911 0 31.915-10.14 38.223-25.832 1.386-3.448 4.732-5.676 8.523-5.676h51.246l-9.248 173.311c-.652 12.216-10.746 21.785-22.98 21.785zm163.193-.4c-.17.182-.468.4-.92.4h-23.393c-2.306-32.415-8.511-56.498-8.792-57.577-1.044-4-5.131-6.398-9.136-5.355-4.001 1.044-6.399 5.134-5.355 9.135.065.248 5.981 23.217 8.265 53.797h-25.661v-55.687c0-4.135-3.352-7.488-7.488-7.488s-7.488 3.352-7.488 7.488v55.687h-25.661c2.276-30.423 8.168-53.422 8.265-53.796 1.044-4.002-1.353-8.092-5.355-9.135-4-1.047-8.091 1.354-9.135 5.355-.281 1.079-6.487 25.162-8.793 57.577h-12.331c4.478-5.871 7.297-13.091 7.718-20.988l3.57-66.902h111.373c2.038 11.663 6.446 38.294 9.091 64.701l1.56 21.842c.032.451-.164.763-.334.946z"/></g></g></svg>