<svg id="Layer_1" enable-background="new 0 0 512 512" height="512" viewBox="0 0 512 512" width="512" xmlns="http://www.w3.org/2000/svg"><g><g><circle cx="256" cy="256" fill="#ffe65a" r="256"/></g><g><g><ellipse cx="252.161" cy="185.024" fill="#afe6ff" rx="151.21" ry="37.787"/></g><g><path d="m134.053 185.024c0-19.471 58.936-35.5 134.659-37.562-5.437-.147-10.957-.226-16.551-.226-83.511 0-151.21 16.918-151.21 37.787s67.699 37.787 151.21 37.787c5.594 0 11.114-.079 16.551-.227-75.723-2.058-134.659-18.088-134.659-37.559z" fill="#73c8f0"/></g><g><g><path d="m402.584 225.649v-28.696h-15.122v180.369c9.089-5.801 15.122-15.967 15.122-27.549v-79.735c0-12.372 10.029-22.4 22.401-22.4h34.968v-21.988h-57.369z" fill="#fd4755"/></g><g><g><path d="m370.705 382.439h-237.695c-18.041 0-32.667-14.625-32.667-32.667v-152.82h303.028v152.82c0 18.042-14.625 32.667-32.666 32.667z" fill="#fd4755"/></g></g><g><path d="m222.739 370.512c-18.041 0-32.667-14.625-32.667-32.667v-140.892h-89.729v28.696h-57.369v21.988h34.968c12.372 0 22.401 10.028 22.401 22.4v79.735c0 18.041 14.625 32.667 32.667 32.667h237.694c10.166 0 19.247-4.646 25.238-11.927z" fill="#e33442"/></g><g><path d="m77.446 250.473h-31.15c-7.639 0-13.831-6.192-13.831-13.831 0-7.64 6.192-13.831 13.831-13.831h31.15z" fill="#373c41"/></g><g><path d="m425.482 250.473h31.149c7.639 0 13.831-6.192 13.831-13.831 0-7.64-6.192-13.831-13.831-13.831h-31.149z" fill="#373c41"/></g><g><g><path d="m403.371 211.283h-303.028c-7.915 0-14.331-6.416-14.331-14.331s6.416-14.331 14.331-14.331h303.028c7.915 0 14.331 6.416 14.331 14.331s-6.416 14.331-14.331 14.331z" fill="#fd4755"/></g></g><g><path d="m176.774 196.953c0-7.915 6.416-14.331 14.331-14.331h-90.761c-7.915 0-14.331 6.416-14.331 14.331s6.416 14.331 14.331 14.331h90.761c-7.915-.001-14.331-6.417-14.331-14.331z" fill="#e33442"/></g><g><path d="m377.958 201.63h-108.112c-5.248 0-9.504-4.255-9.504-9.504s4.256-9.504 9.504-9.504h108.112c5.249 0 9.504 4.255 9.504 9.504s-4.255 9.504-9.504 9.504z" fill="#fd747f"/></g></g><g><path d="m270.055 105.702h-35.788c-8.002 0-14.489 6.487-14.489 14.489s6.487 14.489 14.489 14.489h1.712v12.785h32.734v-12.785h1.344c8.002 0 14.488-6.487 14.488-14.489s-6.488-14.489-14.49-14.489z" fill="#373c41"/></g></g><g><g><path d="m462.25 471.313h-162.984c-40.186 0-72.764-32.578-72.764-72.765 0-40.186 32.578-72.764 72.764-72.764h162.984z" fill="#55c7a6"/></g><g><path d="m228.688 380.822c-1.421 5.675-2.185 11.611-2.185 17.727 0 40.188 32.578 72.765 72.764 72.765h162.983v-35.454h-162.984c-34.071-.001-62.662-23.421-70.578-55.038z" fill="#39ae96"/></g><g><path d="m423.866 390.345c-5.95 0-11.879-2.411-16.2-7.157l-74.667-82.025c-8.142-8.944-7.491-22.794 1.452-30.935 8.944-8.142 22.793-7.49 30.935 1.452l74.667 82.025c8.142 8.944 7.491 22.794-1.452 30.935-4.198 3.821-9.475 5.705-14.735 5.705z" fill="#55c7a6"/></g><g><path d="m323.515 390.577 12.228-8.586c.892-.626 1.55-1.532 1.87-2.574l4.387-14.282c.998-3.248 4.918-4.521 7.635-2.48l11.944 8.975c.871.655 1.936 1.001 3.024.983l14.939-.241c3.398-.055 5.821 3.28 4.719 6.495l-4.846 14.133c-.354 1.031-.354 2.15 0 3.182l4.845 14.133c1.103 3.215-1.319 6.549-4.719 6.495l-14.939-.241c-1.09-.019-2.153.328-3.024.982l-11.944 8.976c-2.717 2.042-6.637.769-7.635-2.48l-4.387-14.282c-.32-1.042-.979-1.947-1.87-2.574l-12.228-8.586c-2.78-1.954-2.78-6.075.001-8.028z" fill="#fffad7"/></g><g><g><path d="m454.219 465.077h-5.215v-12.513h5.215zm0-25.025h-5.215v-12.514h5.215zm0-25.027h-5.215v-12.513h5.215zm0-25.025h-5.215v-12.514h5.215zm0-25.027h-5.215v-12.513h5.215zm0-25.026h-5.215v-12.513h5.215z" fill="#39ae96"/></g><g><path d="m481.139 504.581c-5.253 0-10.191-2.045-13.905-5.76-6.995-6.994-10.798-32.587-11.209-35.482l-.584-4.121 4.121.584c2.896.411 28.488 4.214 35.482 11.209 3.715 3.714 5.76 8.652 5.76 13.905s-2.045 10.191-5.76 13.905c-3.714 3.715-8.652 5.76-13.905 5.76zm-18.256-37.922c1.76 10.217 5.143 24.106 8.774 27.738 2.533 2.532 5.9 3.927 9.481 3.927 3.582 0 6.948-1.395 9.481-3.927 2.532-2.533 3.927-5.899 3.927-9.481 0-3.581-1.395-6.948-3.927-9.481-3.635-3.635-17.521-7.017-27.736-8.776z" fill="#39ae96"/></g></g></g></g></svg>