<svg id="Capa_1" enable-background="new 0 0 512 512" height="512" viewBox="0 0 512 512" width="512" xmlns="http://www.w3.org/2000/svg"><g><g><path d="m68.357 344.626v95.219c0 7.494 6.075 13.569 13.569 13.569 7.121 0 13.03-5.504 13.535-12.607l6.838-96.181z" fill="#596c76"/><path d="m409.701 344.626 6.838 96.181c.505 7.103 6.414 12.607 13.535 12.607 7.494 0 13.569-6.075 13.569-13.569v-95.219z" fill="#596c76"/><path d="m409.701 344.626 3.022 42.52h30.92v-42.52z" fill="#465a61"/><g><path d="m68.357 344.626v42.52h30.92l3.023-42.52z" fill="#465a61"/></g><path d="m474.071 270.586h-218.071v-185c0-14.912 12.088-27 27-27h164.071c14.912 0 27 12.088 27 27z" fill="#01998d"/><path d="m447.071 58.586h-39.685c14.912 0 27 12.088 27 27v185h39.685v-185c0-14.912-12.088-27-27-27z" fill="#008b81"/><path d="m256.036 270.586h-218.072v-185c0-14.912 12.088-27 27-27h164.071c14.912 0 27 12.088 27 27v185z" fill="#01998d"/><path d="m443.643 189.667v98.275c0 5.523-4.477 10-10 10h-355.286c-5.523 0-10-4.477-10-10v-98.275c0-8.284-6.716-15-15-15h-30.857c-8.284 0-15 6.716-15 15v139.132c0 16.569 13.431 30 30 30h437c16.569 0 30-13.431 30-30v-139.132c0-8.284-6.716-15-15-15h-30.857c-8.284 0-15 6.716-15 15z" fill="#0ab69f"/><g><path d="m489.5 174.667h-30.429c8.284 0 15 6.716 15 15v139.132c0 16.569-13.431 30-30 30h30.429c16.569 0 30-13.431 30-30v-139.132c0-8.284-6.716-15-15-15z" fill="#01998d"/></g><path d="m256 297.942h-207.221c-5.953 0-10.779-4.826-10.779-10.779v-43.305c0-5.953 4.826-10.779 10.779-10.779h196.443c5.953 0 10.779 4.826 10.779 10.779v54.084z" fill="#008b81"/><path d="m256 297.942h207.221c5.953 0 10.779-4.826 10.779-10.779v-43.305c0-5.953-4.826-10.779-10.779-10.779h-196.442c-5.953 0-10.779 4.826-10.779 10.779z" fill="#008b81"/><g fill="#037e73"><path d="m463.221 233.079h-28.346c5.953 0 10.779 4.826 10.779 10.779v43.305c0 5.953-4.826 10.779-10.779 10.779h28.346c5.953 0 10.779-4.826 10.779-10.779v-43.305c0-5.953-4.826-10.779-10.779-10.779z"/><path d="m245.221 233.079h-28.346c5.953 0 10.779 4.826 10.779 10.779v54.084h28.346v-54.084c0-5.953-4.826-10.779-10.779-10.779z"/></g></g><path d="m489.5 167.167h-7.929v-51.224c0-4.142-3.358-7.5-7.5-7.5s-7.5 3.358-7.5 7.5v51.224h-7.929c-12.407 0-22.5 10.093-22.5 22.5v35.913c-178.539 0-170.204-.148-172.643.294v-140.288c0-10.752 8.748-19.5 19.5-19.5h164.072c9.521 0 17.602 6.793 19.215 16.155.704 4.082 4.582 6.819 8.665 6.117 4.082-.704 6.821-4.583 6.117-8.665-2.857-16.577-17.155-28.607-33.998-28.607h-164.07c-10.926 0-20.674 5.111-27 13.061-6.326-7.95-16.074-13.061-27-13.061h-164.071c-19.023 0-34.5 15.477-34.5 34.5v81.581h-7.929c-12.407 0-22.5 10.093-22.5 22.5v139.132c0 20.678 16.822 37.5 37.5 37.5h23.357v73.546c0 11.618 9.452 21.069 21.069 21.069 11.004 0 20.236-8.599 21.016-19.576l5.335-75.04h42.732c4.142 0 7.5-3.358 7.5-7.5s-3.358-7.5-7.5-7.5c-11.347 0-102.162 0-113.509 0-12.407 0-22.5-10.093-22.5-22.5v-139.131c0-4.136 3.364-7.5 7.5-7.5h30.857c3.618 0 6.647 2.576 7.347 5.99.1.488.153.993.153 1.51v35.913h-12.078c-10.079 0-18.279 8.2-18.279 18.279v43.305c0 10.079 8.2 18.278 18.279 18.278h414.442c10.079 0 18.279-8.2 18.279-18.279v-43.305c0-10.079-8.2-18.279-18.279-18.279h-12.079v-35.913c0-.517.053-1.022.153-1.51.701-3.415 3.729-5.99 7.347-5.99h30.857c4.136 0 7.5 3.364 7.5 7.5v139.132c0 12.407-10.093 22.5-22.5 22.5-11.941 0-278.437 0-288.491 0-4.142 0-7.5 3.358-7.5 7.5s3.358 7.5 7.5 7.5h217.713l5.335 75.04c.78 10.977 10.012 19.576 21.016 19.576 11.618 0 21.07-9.452 21.07-21.069v-73.546h23.358c20.678 0 37.5-16.822 37.5-37.5v-139.132c0-12.407-10.093-22.5-22.5-22.5zm-396.26 199.132-5.259 73.976c-.225 3.162-2.884 5.639-6.054 5.639-3.347 0-6.069-2.723-6.069-6.069v-73.546zm373.26-79.136c0 1.808-1.471 3.278-3.279 3.278-6.6 0-190.68 0-199.721 0v-19.855-26.728c0-1.808 1.471-3.278 3.279-3.278h196.442c1.808 0 3.279 1.471 3.279 3.278zm-413.143-119.996h-7.929v-81.581c0-10.752 8.748-19.5 19.5-19.5h164.072c10.752 0 19.5 8.748 19.5 19.5v140.288c-2.409-.438 8.4-.294-172.643-.294v-35.913c0-12.407-10.093-22.5-22.5-22.5zm-7.857 119.996v-43.305c0-1.808 1.471-3.279 3.279-3.279h196.442c1.808 0 3.279 1.471 3.279 3.279v26.728 19.855h-199.721c-1.808 0-3.279-1.47-3.279-3.278zm390.643 152.682c0 3.347-2.723 6.069-6.07 6.069-3.17 0-5.829-2.477-6.054-5.639l-5.259-73.976h17.383z"/></g></svg>