<svg id="Capa_1" enable-background="new 0 0 512 512" height="512" viewBox="0 0 512 512" width="512" xmlns="http://www.w3.org/2000/svg"><g><g><path clip-rule="evenodd" d="m474.5 7.5h-315l-30 30h375zm30 119.999h-375v242.001h30l15 15v15l-15 15 15 15v15l-15 15 15 15v15l-15 15h315l30-30zm-187.5 63.5c69.035 0 125 55.964 125 125s-55.964 125-125 125-125-55.964-125-125c0-69.035 55.964-125 125-125z" fill="#e0dfde" fill-rule="evenodd"/><circle cx="318" cy="316" fill="#fff" r="96"/><g clip-rule="evenodd" fill-rule="evenodd"><ellipse cx="459.5" cy="82.5" fill="#c4e5f9" rx="15" ry="15" transform="matrix(.707 -.707 .707 .707 76.249 349.079)"/><ellipse cx="399.501" cy="82.5" fill="#f492a7" rx="15" ry="15" transform="matrix(.987 -.16 .16 .987 -8.056 65.058)"/><ellipse cx="339.502" cy="82.5" fill="#e7cda2" rx="15" ry="15" transform="matrix(.987 -.16 .16 .987 -8.831 55.448)"/><path d="m159.499 67.5h89.999v30h-89.999z" fill="#c4e5f9"/><path d="m324.502 82.499c0-8.284 6.716-15 15-15s15 6.716 15 15-6.716 15-15 15c-8.284.001-15-6.715-15-15zm179.998-44.999h-375v89.999h375zm-119.999 44.999c0-8.284 6.716-15 15-15s15 6.716 15 15-6.716 15-15 15c-8.284.001-15-6.715-15-15zm59.999 0c0-8.284 6.716-15 15-15s15 6.716 15 15-6.716 15-15 15c-8.284.001-15-6.715-15-15zm-195.002-14.999v30h-89.999v-30z" fill="#ffcf7b"/><path d="m442 315.999c0-69.036-55.964-125-125-125s-125 55.964-125 125 55.964 125 125 125 125-55.964 125-125zm-125-95.049c52.662 0 95.05 42.723 95.05 95.05 0 5.104-.402 10.114-1.177 15h-78.873l-30-30h-78.873c7.192-45.368 46.482-80.05 93.873-80.05z" fill="#bfbec1"/><path d="m410.867 330.999c-7.193 45.366-46.477 80.05-93.867 80.05-52.495 0-95.05-42.555-95.05-95.05 0-5.104.407-10.113 1.182-15h78.868l30 30z" fill="#c4e5f9"/><path d="m159.5 369.5h-137l-15 15v15l15 15h137l14.999-15v-15z" fill="#f492a7"/><path d="m159.5 414.5h-137l-15 15v15l15 15h137l14.999-15v-15z" fill="#7fdcc7"/><path d="m159.5 459.5h-137l-15 15v15l15 15h137l14.999-15v-15z" fill="#c4e5f9"/><path d="m189.499 7.5h-30l-30 30h30zm-30 119.999h-30v242.001h30zm.001 242.001 15 15v15l-15 15 15 15v15l-15 15 15 15v15l-15 15h30l15-15v-15l-15-15 15-15v-15l-15-15 15-15v-15l-15-15z" fill="#bfbec1"/><path d="m331.999 191.898c-74.28-8.883-140 48.901-140 124.101s65.72 132.983 140 124.101c-61.962-7.411-110-60.142-110-124.101s48.038-116.689 110-124.101z" fill="#9c9c9f"/><path d="m332.009 409.868c-4.889.776-9.902 1.181-15.009 1.181-52.495 0-95.05-42.555-95.05-95.05 0-5.104.407-10.113 1.182-15h30c-.775 4.887-1.182 9.896-1.182 15 0 47.393 34.688 86.68 80.059 93.869z" fill="#a4d7f5"/><path d="m129.5 37.5h30v89.999h-30z" fill="#ffaf02"/><path d="m52.5 369.5h-30l-15 15v15l15 15h30l-15-15v-15z" fill="#f05d7a"/><path d="m52.5 414.5h-30l-15 15v15l15 15h30l-15-15v-15z" fill="#6ab7a4"/><path d="m52.5 459.5h-30l-15 15v15l15 15h30l-15-15v-15z" fill="#a4d7f5"/></g><g><path d="m241.999 489.499h-15v-15h15zm-30 0h-15v-15h15zm270.001-324.5h-59.999v-15h59.999zm-74.999 0h-15v-15h15z" fill="#fff"/></g></g><g><path d="m477.606 0h-321.213l-34.393 34.394v130.605h15v-30h360v332.001h-67.5v15h56.894l-15 15h-274.395v15h280.607l34.394-34.394v-443.212zm-315 15h308.788l15 15h-338.788zm-25.606 104.999v-74.999h360v74.999z"/><path d="m122 179.999h15v167.001h-15z"/><path d="m317 448.499c73.061 0 132.499-59.439 132.499-132.5s-59.438-132.499-132.499-132.499-132.5 59.439-132.5 132.5 59.439 132.499 132.5 132.499zm0-249.999c64.789 0 117.499 52.71 117.499 117.5s-52.71 117.5-117.499 117.5c-64.79 0-117.5-52.71-117.5-117.5s52.71-117.5 117.5-117.5z"/><path d="m317 418.549c24.397 0 48.038-8.716 66.568-24.543l-9.742-11.405c-15.816 13.509-35.998 20.948-56.826 20.948-48.275 0-87.55-39.274-87.55-87.55 0-2.527.114-5.027.325-7.5h69.119l29.999 30h72.705c-3.341 12.562-9.449 24.319-17.997 34.327l11.406 9.742c15.826-18.529 24.542-42.17 24.542-66.569 0-56.546-46.003-102.549-102.549-102.549s-102.55 46.003-102.55 102.549 46.004 102.55 102.55 102.55zm0-190.099c40.498 0 74.657 27.643 84.613 65.05h-50.741v15h53.352c.211 2.473.325 4.973.325 7.5 0 2.512-.114 5.014-.328 7.5h-69.116l-29.999-30h-72.72c9.956-37.407 44.115-65.05 84.614-65.05z"/><path d="m459.5 60c-12.406 0-22.5 10.093-22.5 22.5s10.094 22.5 22.5 22.5 22.5-10.094 22.5-22.5-10.094-22.5-22.5-22.5zm0 30c-4.136 0-7.5-3.364-7.5-7.5s3.364-7.5 7.5-7.5 7.5 3.364 7.5 7.5-3.364 7.5-7.5 7.5z"/><path d="m399.501 60c-12.406 0-22.5 10.093-22.5 22.5s10.094 22.5 22.5 22.5 22.5-10.093 22.5-22.5-10.094-22.5-22.5-22.5zm0 30c-4.136 0-7.5-3.364-7.5-7.5s3.364-7.5 7.5-7.5 7.5 3.364 7.5 7.5-3.364 7.5-7.5 7.5z"/><path d="m339.502 60c-12.406 0-22.5 10.093-22.5 22.5s10.094 22.5 22.5 22.5 22.5-10.093 22.5-22.5-10.094-22.5-22.5-22.5zm0 30c-4.136 0-7.5-3.364-7.5-7.5s3.364-7.5 7.5-7.5 7.5 3.364 7.5 7.5-3.364 7.5-7.5 7.5z"/><path d="m152 105h104.999v-45h-104.999zm15-30h74.999v15h-74.999z"/><path d="m19.394 362-19.394 19.393v21.213l11.893 11.894-11.893 11.893v21.213l11.893 11.894-11.893 11.893v21.213l19.394 19.394h143.212l19.394-19.394v-21.213l-11.894-11.893 11.894-11.894v-21.213l-11.894-11.893 11.894-11.894v-21.213l-19.394-19.393zm147.606 124.394-10.607 10.606h-130.787l-10.606-10.606v-8.788l10.606-10.606h26.894v-15h-26.894l-10.606-10.606v-8.788l10.606-10.606h130.787l10.607 10.606v8.788l-10.607 10.606h-88.893v15h88.894l10.606 10.606zm0-90-10.607 10.606h-130.787l-10.606-10.606v-8.788l10.606-10.606h130.787l10.607 10.606z"/></g></g></svg>