<svg id="filled_outline" height="512" viewBox="0 0 512 512" width="512" xmlns="http://www.w3.org/2000/svg" data-name="filled outline"><path d="m80 288v-128a32 32 0 0 1 32-32h288a32 32 0 0 1 32 32v128z" fill="#de9400"/><path d="m424.47389 336a32 32 0 0 0 30.54336-22.4552l31.726-101.52319a27.6089 27.6089 0 0 0 1.25675-8.23501v-.1778a27.6088 27.6088 0 0 0 -27.6088-27.6088 27.6088 27.6088 0 0 0 -26.38791 19.48944l-26.00329 84.51056h-304l-26.00325-84.51056a27.6088 27.6088 0 0 0 -26.38791-19.48944 27.6088 27.6088 0 0 0 -27.60884 27.6088v.1778a27.6089 27.6089 0 0 0 1.25675 8.235l31.726 101.52319a32 32 0 0 0 30.54336 22.45521z" fill="#fac623"/><path d="m128 240h104a24 24 0 0 1 24 24v16a0 0 0 0 1 0 0h-152a0 0 0 0 1 0 0v-16a24 24 0 0 1 24-24z" fill="#f6bb00"/><path d="m280 240h104a24 24 0 0 1 24 24v16a0 0 0 0 1 0 0h-152a0 0 0 0 1 0 0v-16a24 24 0 0 1 24-24z" fill="#eda600"/><path d="m96 336-8 48h16l32-48z" fill="#b1712c"/><path d="m416 336 8 48h-16l-32-48z" fill="#b1712c"/><path d="m460.39111 168a35.5522 35.5522 0 0 0 -20.39111 6.37036v-14.37036a40.04521 40.04521 0 0 0 -40-40h-288a40.04521 40.04521 0 0 0 -40 40v14.37036a35.6593 35.6593 0 0 0 -56 29.23853v.17773a35.56637 35.56637 0 0 0 1.62109 10.62109l31.72608 101.52344a39.81463 39.81463 0 0 0 37.2124 28.04956l-6.45068 38.70435a8.00022 8.00022 0 0 0 7.89111 9.31494h16a7.99943 7.99943 0 0 0 6.65625-3.5625l29.625-44.4375h231.4375l29.625 44.4375a7.99943 7.99943 0 0 0 6.65625 3.5625h16a8.00022 8.00022 0 0 0 7.89111-9.31494l-6.45068-38.70435a39.81463 39.81463 0 0 0 37.2124-28.04956l31.72608-101.52344a35.56637 35.56637 0 0 0 1.62109-10.62109v-.17773a35.64927 35.64927 0 0 0 -35.60889-35.60889zm-348.39111-32h288a24.0275 24.0275 0 0 1 24 24v40.79675l-13.803 44.85974a31.978 31.978 0 0 0 -26.197-13.65649h-104a31.92485 31.92485 0 0 0 -24 10.86768 31.92485 31.92485 0 0 0 -24-10.86768h-104a31.978 31.978 0 0 0 -26.197 13.65649l-13.803-44.85974v-40.79675a24.0275 24.0275 0 0 1 24-24zm136 136h-136v-8a16.01833 16.01833 0 0 1 16-16h104a16.01833 16.01833 0 0 1 16 16zm152 0h-136v-8a16.01833 16.01833 0 0 1 16-16h104a16.01833 16.01833 0 0 1 16 16zm-300.28125 104h-2.2749l5.33313-32h18.275zm312.5625 0-21.33325-32h18.275l5.33313 32zm67.71875-172.21338a19.58885 19.58885 0 0 1 -.89258 5.84863l-31.72607 101.52344a23.89673 23.89673 0 0 1 -22.90723 16.84131h-336.94824a23.89673 23.89673 0 0 1 -22.90723-16.84131l-31.72607-101.52344a19.58885 19.58885 0 0 1 -.89258-5.84863v-.17773a19.60892 19.60892 0 0 1 38.35059-5.76709l26.00341 84.51074a7.99934 7.99934 0 0 0 7.646 5.64746h304a7.99934 7.99934 0 0 0 7.646-5.64746l26.00341-84.51074a19.60892 19.60892 0 0 1 38.35059 5.76709z"/><path d="m136 176h16v16h-16z"/><path d="m192 176h16v16h-16z"/><path d="m248 176h16v16h-16z"/><path d="m304 176h16v16h-16z"/><path d="m360 176h16v16h-16z"/></svg>